# xmcd
#
# Track frame offsets:
#	150
#	14962
#	26848
#	39544
#	54403
#	67446
#	80133
#	93847
#	108141
#	121342
#	135668
#	147594
#	162130
#	175303
#	183827
#	196509
#	211077
#	221870
#	235300
#	249311
#
# Disc length: 3516 seconds
#
# Revision: 1
# Processed by: cddbd v1.5.1PL2 Copyright (c) Steve Scherf et al.
# Submitted via: audiograbber 1.82.02
#
DISCID=240dba14
DTITLE=Nat King Cole - Mona Lisa
DYEAR=2005
DGENRE=
TTITLE0=Mona Lisa
TTITLE1=Nature Boy
TTITLE2=Route 66
TTITLE3=Red Sails In The Sunset
TTITLE4=Smile
TTITLE5=My Baby Just Cares For Me
TTITLE6=What Can I Say
TTITLE7=I Dont Know Why
TTITLE8=Sweet Lorraine
TTITLE9=Because  You Are Mine
TTITLE10=Walkin My Baby Back Home
TTITLE11=Too Young
TTITLE12=Paper Moon
TTITLE13=Almoste Like Being In Love
TTITLE14=Im  Hurtin
TTITLE15=Cant I
TTITLE16=When I Take My Sugar To Tea
TTITLE17=For All We Know
TTITLE18=If I Had You
TTITLE19=Unforgettable
EXTD=
EXTT0=
EXTT1=
EXTT2=
EXTT3=
EXTT4=
EXTT5=
EXTT6=
EXTT7=
EXTT8=
EXTT9=
EXTT10=
EXTT11=
EXTT12=
EXTT13=
EXTT14=
EXTT15=
EXTT16=
EXTT17=
EXTT18=
EXTT19=
PLAYORDER=
